Coordinates
version=1
nRows=22
nColumns=24
inDegrees=yes

Units are S.I. units (second, meters, Newtons, ...)
Angles are in degrees.

endheader
time	pelvis_tilt	pelvis_list	pelvis_rotation	pelvis_tx	pelvis_ty	pelvis_tz	hip_flexion_r	hip_adduction_r	hip_rotation_r	knee_angle_r	ankle_angle_r	subtalar_angle_r	mtp_angle_r	hip_flexion_l	hip_adduction_l	hip_rotation_l	knee_angle_l	ankle_angle_l	subtalar_angle_l	mtp_angle_l	lumbar_extension	lumbar_bending	lumbar_rotation
      3.51500000	    -11.38497066	     11.41279003	     -2.79903518	     -0.80307999	     -0.04048699	      0.48849032	     12.74523780	    -13.23979205	      4.27066625	    -56.32115920	    -15.25672895	      8.49919270	     20.97636915	     30.57982453	     15.47114113	      3.91275964	    -23.09225470	     -4.60095800	     -7.15258752	      0.10075688	     10.45675856	    -13.91773826	     12.78685201
      3.52000000	    -11.33898910	     11.45254923	     -2.76996257	     -0.79546728	     -0.03915091	      0.48797209	     13.80340018	    -13.36226129	      4.27677409	    -57.34917836	    -15.12893934	      8.03610646	     20.96193233	     29.78424274	     15.59714389	      4.01653437	    -22.65530630	     -4.24196631	     -7.02482528	      0.26386295	     10.39203585	    -13.93276764	     12.57877093
      3.52500000	    -11.34154086	     11.41412649	     -2.80889321	     -0.78810977	     -0.03782039	      0.48760754	     14.95489112	    -13.34432042	      4.35507327	    -58.32008151	    -14.99627482	      7.56192669	     20.88181638	     29.08157001	     15.58932033	      4.00700400	    -22.25858418	     -3.90245164	     -6.85471790	      0.47493610	     10.35576361	    -13.84950068	     12.40638871
      3.53000000	    -11.29296742	     11.38618179	     -2.79459570	     -0.78069880	     -0.03642194	      0.48712331	     16.00330513	    -13.37641129	      4.35329565	    -59.17218761	    -14.74670019	      7.34901742	     21.00619323	     28.28558373	     15.64546772	      4.15997497	    -21.82126883	     -3.62457321	     -6.79158589	      0.56514843	     10.26366645	    -13.78581373	     12.19822512
      3.53500000	    -11.23252472	     11.30870418	     -2.80082153	     -0.77329863	     -0.03494348	      0.48669815	     17.01495169	    -13.32949073	      4.36891357	    -59.90944184	    -14.47656982	      7.20431259	     21.15572980	     27.45452727	     15.64568319	      4.34498899	    -21.35367638	     -3.37386889	     -6.78266154	      0.60077302	     10.16280829	    -13.66511257	     11.97732963
      3.54000000	    -11.19847909	     11.23525275	     -2.80317906	     -0.76589201	     -0.03350523	      0.48627372	     18.04647830	    -13.28944787	      4.35561956	    -60.56747798	    -14.15502458	      7.13199705	     21.37129777	     26.64384804	     15.65001562	      4.57226741	    -20.87628552	     -3.14566703	     -6.78013445	      0.60134580	     10.10411728	    -13.54738679	     11.77347261
      3.54500000	    -11.24049299	     11.14588868	     -2.73795433	     -0.75854957	     -0.03221170	      0.48564330	     19.13197143	    -13.24919740	      4.32701154	    -61.14500577	    -13.72436861	      7.31176216	     21.92327319	     25.92501120	     15.68439140	      4.87947092	    -20.43145651	     -2.96115577	     -6.95934806	      0.38497415	     10.10170832	    -13.40587390	     11.48750783
      3.55000000	    -11.22292688	     11.00734969	     -2.68685878	     -0.75120164	     -0.03078767	      0.48505809	     20.11644562	    -13.14089203	      4.27033974	    -61.59793820	    -13.34891606	      7.37420142	     22.45819056	     25.11219070	     15.66825160	      5.26057240	    -19.95335431	     -2.77900490	     -7.13547227	      0.09477275	     10.04055101	    -13.21529893	     11.21066094
      3.55500000	    -11.19537197	     10.84761017	     -2.62105473	     -0.74385024	     -0.02935895	      0.48446878	     21.06136364	    -13.00609380	      4.18647022	    -61.96521626	    -12.94163219	      7.45209280	     22.95515062	     24.27751993	     15.63294971	      5.67120199	    -19.46563200	     -2.59657957	     -7.30393670	     -0.21303822	      9.96768505	    -13.00664048	     10.90651436
      3.56000000	    -11.15219593	     10.70453422	     -2.52592206	     -0.73648314	     -0.02793073	      0.48381681	     21.96306919	    -12.89883296	      4.07327804	    -62.24067857	    -12.56561725	      7.47720577	     23.57442507	     23.40509723	     15.62936468	      6.13659070	    -18.95120998	     -2.41804039	     -7.48797482	     -0.69002073	      9.87779716	    -12.81852705	     10.57066331
      3.56500000	    -11.13462871	     10.45933430	     -2.42990280	     -0.72919954	     -0.02652586	      0.48319417	     22.85741093	    -12.65280017	      3.94837812	    -62.44024939	    -12.09954067	      7.53995421	     23.92348015	     22.57496340	     15.50049462	      6.55874341	    -18.45892738	     -2.23703842	     -7.62793724	     -0.93976000	      9.80104740	    -12.52285393	     10.22570628
      3.57000000	    -11.07589251	     10.26595877	     -2.27701961	     -0.72186879	     -0.02513439	      0.48245725	     23.67851562	    -12.50245431	      3.75447920	    -62.56047156	    -11.66457363	      7.52751041	     24.38074229	     21.66652560	     15.45210442	      7.09534247	    -17.92215572	     -2.07734302	     -7.79666585	     -1.35077447	      9.68000198	    -12.29389659	      9.82831016
      3.57500000	    -11.05340379	      9.99329848	     -2.13114935	     -0.71457449	     -0.02375234	      0.48176547	     24.50254062	    -12.23249106	      3.57451631	    -62.58811475	    -11.21122363	      7.50548991	     24.65907815	     20.80478969	     15.28932505	      7.51339222	    -17.37983993	     -1.91101307	     -7.87338006	     -1.56759923	      9.59661668	    -11.97585726	      9.43517885
      3.58000000	    -10.98459195	      9.74667430	     -1.94459877	     -0.70730059	     -0.02240239	      0.48102694	     25.25328610	    -12.01644315	      3.33815477	    -62.55059523	    -10.76706845	      7.37809019	     24.94049967	     19.87845464	     15.16028652	      7.99716801	    -16.81405973	     -1.74240657	     -7.91982940	     -1.78339535	      9.45345153	    -11.70009068	      8.99893215
      3.58500000	    -10.95097636	      9.45986696	     -1.75859435	     -0.69998261	     -0.02107596	      0.48029514	     26.00837215	    -11.74505395	      3.10100669	    -62.42257216	    -10.34343652	      7.23819365	     25.10793134	     18.98224871	     14.96337607	      8.38740380	    -16.21823905	     -1.58629604	     -7.88789739	     -1.87288981	      9.36334969	    -11.37711678	      8.57943818
      3.59000000	    -10.87152334	      9.17780660	     -1.54394949	     -0.69274236	     -0.01978619	      0.47955260	     26.69116531	    -11.49448067	      2.81837025	    -62.22738016	     -9.92221612	      6.97997438	     25.23098345	     18.03792659	     14.76799225	      8.80177987	    -15.61454299	     -1.41698576	     -7.80618328	     -1.88070364	      9.20841615	    -11.07261446	      8.10900323
      3.59500000	    -10.83177795	      8.86707418	     -1.32526507	     -0.68546115	     -0.01854349	      0.47880296	     27.38649394	    -11.21065745	      2.53068678	    -61.94774970	     -9.53569356	      6.71554972	     25.26536641	     17.13184653	     14.52261562	      9.16024741	    -14.98916215	     -1.26924060	     -7.67088190	     -1.80981536	      9.11023861	    -10.73266465	      7.66363154
      3.60000000	    -10.76794562	      8.55010190	     -1.08729814	     -0.67824662	     -0.01735485	      0.47806110	     28.03389649	    -10.93098626	      2.20818489	    -61.60180454	     -9.16389303	      6.35367660	     25.22300463	     16.20979636	     14.26279987	      9.52105154	    -14.36814393	     -1.11687759	     -7.50056152	     -1.65502506	      8.97372671	    -10.39671439	      7.18367702
      3.60500000	    -10.71003593	      8.22482770	     -0.85584449	     -0.67103787	     -0.01622727	      0.47733693	     28.66745614	    -10.64329583	      1.87862621	    -61.18212946	     -8.81330714	      5.95046715	     25.10194341	     15.30088828	     13.97923426	      9.86260245	    -13.74454662	     -0.98068320	     -7.32179040	     -1.45482460	      8.84973665	    -10.05082026	      6.70977491
      3.61000000	    -10.65873260	      7.89214091	     -0.62104418	     -0.66386787	     -0.01518306	      0.47662464	     29.29076767	    -10.35190633	      1.53739829	    -60.69873552	     -8.48015880	      5.50920485	     24.89945846	     14.41345149	     13.67971050	     10.20765269	    -13.13420062	     -0.85404463	     -7.15672710	     -1.23362398	      8.73151911	     -9.69786646	      6.24014558
      3.61500000	    -10.55707194	      7.58315004	     -0.39136553	     -0.65673554	     -0.01418733	      0.47597804	     29.84670162	    -10.08980100	      1.18315400	    -60.16358697	     -8.13425920	      5.01230207	     24.53535955	     13.47802078	     13.39313785	     10.57013960	    -12.51929972	     -0.75820296	     -7.02047079	     -0.93969389	      8.55624987	     -9.38246895	      5.78621606
      3.62000000	    -10.55746107	      7.24202795	     -0.16237030	     -0.64964925	     -0.01336662	      0.47528977	     30.49811534	     -9.79305917	      0.83868921	    -59.55932596	     -7.81052445	      4.55492435	     24.18330669	     12.68907580	     13.07479759	     10.92244897	    -11.96284925	     -0.65751505	     -6.96249262	     -0.79145852	      8.49147668	     -9.01978760	      5.30802908
